<svg width="499" height="149" viewBox="0 0 499 149" xmlns="http://www.w3.org/2000/svg" xmlns:xlink="http://www.w3.org/1999/xlink"><title>F39AD1F9-CC40-49DF-B5E0-AEA35F5FDE96</title><defs><path id="a" d="M470.369 148.843H0V0h470.369z"/></defs><g fill="none" fill-rule="evenodd"><g><mask id="b" fill="#fff"><use xlink:href="#a"/></mask><path d="M0 149.096l235.182-20.265 235.182 20.265L470.37 0s-206.56 20.265-235.183 20.265C206.56 20.265 0 0 0 0v149.096" fill="#0F4DBC" mask="url(#b)"/></g><path d="M77.17 85.449c-2.527 2.518-8.04 4.468-18.662 4.468H35.564V60.881h22.944c10.623 0 16.135 1.95 18.662 4.473 2.335 2.331 3.5 5.508 3.5 10.051 0 4.531-1.165 7.704-3.5 10.044zM58.702 52.718H25.524v45.366h33.178c15.486 0 22.68-3.636 26.245-7.198 4.084-4.083 5.828-9.268 5.828-15.48 0-6.225-1.744-11.407-5.828-15.498-3.565-3.554-10.76-7.19-26.245-7.19zM116.266 79.356l14.317-21.196 14.388 21.196h-28.705zm7.774-26.903L92.485 98.084h11.079l7.256-10.697h39.593l7.26 10.697h11.534l-31.554-45.631H124.04zM173.817 79.423h29.546v-8.49h-35.874l6.328 8.49M227.698 52.718h-10.043v45.366h55.65v-8.303h-45.607V52.718M286.074 98.084h10.043V52.718h-10.043zM308.749 60.88h28.97v37.204h10.039V60.881h28.966v-8.163h-67.975v8.163M447.752 60.88v-8.162h-58.914v45.37h58.914v-8.17h-48.929v-10.76h48.013v-8.04h-48.013V60.882h48.929" fill="#FFF"/><path d="M489.602 6.564h-3.848v1.384h3.848c1.09 0 1.706-.03 1.913-.236.12-.116.174-.236.174-.44 0-.236-.054-.356-.174-.472-.207-.207-.824-.236-1.913-.236zm1.855 3.115l2.94 2.087v.058h-3.383l-2.82-2.025h-2.44v2.025h-2.497V4.597h6.788c2.203 0 2.879.294 3.496.911.443.443.617 1.085.617 1.673 0 .618-.174 1.268-.617 1.707-.381.38-1.114.675-2.084.79zm4.523-5.641c-1.114-1.114-3.056-1.938-7.583-1.938s-6.461.824-7.58 1.938c-.968.97-1.35 2.41-1.35 4.233 0 1.967.41 3.292 1.38 4.261 1.118 1.114 3.023 1.91 7.55 1.91 4.527 0 6.469-.825 7.583-1.939.973-.969 1.35-2.265 1.35-4.232 0-1.823-.377-3.264-1.35-4.233zm1.263 9.521c-1.379 1.38-4.083 2.469-8.846 2.469-4.759 0-7.46-1.09-8.842-2.469-1.235-1.234-1.732-3.085-1.732-5.26 0-2.087.497-4.083 1.732-5.317 1.383-1.383 4.083-2.468 8.842-2.468 4.763 0 7.467 1.085 8.846 2.468 1.234 1.234 1.735 3.172 1.735 5.26 0 2.174-.5 4.083-1.735 5.317z" fill="#2A4B8E"/></g></svg>